<?xml version="1.0" encoding="UTF-8" standalone="no"?>
<svg
   width="200mm"
   height="200mm"
   viewBox="0 0 200 200"
   version="1.1"
   id="svg8"
   inkscape:version="1.1 (c68e22c387, 2021-05-23)"
   sodipodi:docname="fraxinusinagale.svg"
   xmlns:inkscape="http://www.inkscape.org/namespaces/inkscape"
   xmlns:sodipodi="http://sodipodi.sourceforge.net/DTD/sodipodi-0.dtd"
   xmlns:xlink="http://www.w3.org/1999/xlink"
   xmlns="http://www.w3.org/2000/svg"
   xmlns:svg="http://www.w3.org/2000/svg"
   xmlns:rdf="http://www.w3.org/1999/02/22-rdf-syntax-ns#"
   xmlns:cc="http://creativecommons.org/ns#"
   xmlns:dc="http://purl.org/dc/elements/1.1/">
  <defs
     id="defs2">
    <linearGradient
       inkscape:collect="always"
       id="linearGradient5384">
      <stop
         style="stop-color:#4b3552;stop-opacity:1"
         offset="0"
         id="stop5380" />
      <stop
         style="stop-color:#ab3627;stop-opacity:1"
         offset="1"
         id="stop5382" />
    </linearGradient>
    <linearGradient
       inkscape:collect="always"
       xlink:href="#linearGradient5384"
       id="linearGradient5388"
       x1="45.366795"
       y1="66.968864"
       x2="45.366795"
       y2="321.6044"
       gradientUnits="userSpaceOnUse"
       gradientTransform="matrix(0.34617204,0,0,0.34617204,82.967209,40.513816)" />
  </defs>
  <sodipodi:namedview
     id="base"
     pagecolor="#ffffff"
     bordercolor="#666666"
     borderopacity="1.0"
     inkscape:pageopacity="0.0"
     inkscape:pageshadow="2"
     inkscape:zoom="0.64"
     inkscape:cx="237.5"
     inkscape:cy="463.28125"
     inkscape:document-units="mm"
     inkscape:current-layer="layer4"
     inkscape:document-rotation="0"
     showgrid="false"
     inkscape:window-width="1920"
     inkscape:window-height="1010"
     inkscape:window-x="-7"
     inkscape:window-y="-7"
     inkscape:window-maximized="1"
     showguides="true"
     inkscape:guide-bbox="true"
     inkscape:pagecheckerboard="0">
    <sodipodi:guide
       position="49.389541,353.08643"
       orientation="1,0"
       id="guide842" />
  </sodipodi:namedview>
  <metadata
     id="metadata5">
    <rdf:RDF>
      <cc:Work
         rdf:about="">
        <dc:format>image/svg+xml</dc:format>
        <dc:type
           rdf:resource="http://purl.org/dc/dcmitype/StillImage" />
      </cc:Work>
    </rdf:RDF>
  </metadata>
  <g
     inkscape:groupmode="layer"
     id="layer4"
     inkscape:label="符号">
    <path
       id="path846"
       style="fill:#db9945;fill-opacity:1;stroke-width:1.73086;stroke-opacity:0.321569"
       d="m 91.997898,168.42919 c -0.683211,0.32447 -1.375667,0.62932 -2.077082,0.91413 v 5.22375 h -3.759895 v 2.0769 h 3.759895 v 2.51518 c -3.371508,0.52523 -5.857631,3.43714 -5.857732,6.84932 1.6e-5,2.39647 1.239339,4.62252 3.276354,5.88493 -2.036364,1.26199 -3.275594,3.48705 -3.276354,5.88277 h 2.07708 c 7.76e-4,-2.67574 2.170559,-4.84426 4.846299,-4.84432 2.675801,-4e-5 4.845317,2.16851 4.846466,4.84432 h 2.077084 c -7.72e-4,-2.39575 -1.240101,-4.62082 -3.276536,-5.88277 2.037094,-1.26237 3.276483,-3.48842 3.276536,-5.88493 -2.7e-5,-3.43308 -2.515855,-6.34766 -5.912115,-6.84914 v -2.51536 h 3.759729 v -2.0769 H 91.997898 Z M 90.986463,181.162 c 2.676644,-4e-5 4.846501,2.16982 4.846466,4.84647 3.5e-5,2.67664 -2.169822,4.8465 -4.846466,4.84647 -2.676577,-6e-5 -4.84633,-2.1699 -4.846299,-4.84647 -3.1e-5,-2.67658 2.169722,-4.84641 4.846299,-4.84647 z"
       sodipodi:nodetypes="cccccccccccsccccccccccscscs" />
    <path
       id="path927"
       style="color:#000000;font-style:normal;font-variant:normal;font-weight:normal;font-stretch:normal;font-size:medium;line-height:normal;font-family:sans-serif;font-variant-ligatures:normal;font-variant-position:normal;font-variant-caps:normal;font-variant-numeric:normal;font-variant-alternates:normal;font-variant-east-asian:normal;font-feature-settings:normal;font-variation-settings:normal;text-indent:0;text-align:start;text-decoration:none;text-decoration-line:none;text-decoration-style:solid;text-decoration-color:#000000;letter-spacing:normal;word-spacing:normal;text-transform:none;writing-mode:lr-tb;direction:ltr;text-orientation:mixed;dominant-baseline:auto;baseline-shift:baseline;text-anchor:start;white-space:normal;shape-padding:0;shape-margin:0;inline-size:0;clip-rule:nonzero;display:inline;overflow:visible;visibility:visible;opacity:1;isolation:auto;mix-blend-mode:normal;color-interpolation:sRGB;color-interpolation-filters:linearRGB;solid-color:#000000;solid-opacity:1;vector-effect:none;fill:#db9945;fill-opacity:1;fill-rule:nonzero;stroke:none;stroke-width:2.07703;stroke-linecap:butt;stroke-linejoin:miter;stroke-miterlimit:4;stroke-dasharray:none;stroke-dashoffset:0;stroke-opacity:1;color-rendering:auto;image-rendering:auto;shape-rendering:auto;text-rendering:auto;enable-background:accumulate;stop-color:#000000;stop-opacity:1"
       d="m 109.35053,157.49154 c -0.69492,0.4288 -1.3871,0.86171 -2.07708,1.29837 v 9.97613 h -3.75722 v 2.0769 h 3.75722 v 3.05186 h -7.2724 l 0.89928,1.55776 3.25614,5.63949 4.15543,7.19797 4.15542,-7.19797 4.15542,-7.19725 h -7.27221 v -3.05186 h 3.75689 v -2.0769 h -3.75689 z m -5.75255,18.48034 h 4.71392 4.71319 l -2.35615,4.08172 -2.35704,4.08244 -2.35687,-4.08244 z"
       sodipodi:nodetypes="cccccccccccccccccccccccccc" />
  </g>
  <g
     inkscape:label="苦蒿"
     inkscape:groupmode="layer"
     id="layer1"
     style="display:inline">
    <path
       id="path847"
       style="fill:#d77632;fill-opacity:1;stroke:none;stroke-width:0.0915918px;stroke-linecap:butt;stroke-linejoin:miter;stroke-opacity:1"
       d="m 119.2309,143.42183 c -2.01397,-0.15715 -3.96953,0.0914 -5.60699,0.71044 -6.16457,2.33061 -11.29612,6.42104 -14.545984,8.55145 -3.214116,2.10699 -9.110227,5.72591 -10.153378,6.2867 -2.300114,1.23652 -5.351248,1.70764 -9.011358,-0.45726 -5.804351,-3.4332 -4.677138,-7.66754 -3.824511,-9.27571 1.454174,-2.74273 3.475948,-4.47654 7.490105,-4.86388 5.17702,-0.49954 9.767187,3.17264 9.767187,3.17264 -11.521427,-9.61787 -23.762885,0.34942 -22.434544,10.4001 1.328332,10.05067 12.000785,12.97124 18.165357,10.64061 6.164576,-2.33062 11.225626,-6.29854 14.545986,-8.55144 3.294,-2.23502 9.0923,-5.76043 10.15337,-6.28653 2.57225,-1.27541 5.35123,-1.70764 9.01134,0.45726 5.80436,3.43319 4.67716,7.66736 3.82453,9.27553 -1.45417,2.74272 -3.47301,4.50829 -7.49011,4.86386 -5.64353,0.49955 -9.76718,-3.17243 -9.76718,-3.17243 11.5214,9.61785 23.76287,-0.34943 22.43452,-10.4001 -0.97549,-7.38097 -6.99031,-10.91675 -12.55834,-11.35124 z"
       sodipodi:nodetypes="ssssssscssssssscss" />
    <path
       id="path834"
       style="fill:url(#linearGradient5388);fill-opacity:1;stroke:none;stroke-width:0.0915918px;stroke-linecap:butt;stroke-linejoin:miter;stroke-opacity:1"
       d="m 65.972285,77.911457 c 0.722871,3.708156 2.201362,3.76012 3.327768,5.917942 1.126406,2.157822 2.239245,3.538207 1.453661,3.085317 -0.785577,-0.45289 -5.355305,-3.983647 -5.838551,-3.315338 -0.483236,0.668313 0.650764,2.628152 1.767497,3.598476 1.116733,0.970324 3.34636,2.691076 3.463986,3.128945 0.117625,0.437863 -0.987597,0.127215 -2.039763,-0.294339 -1.052165,-0.421551 -3.429436,-1.149916 -3.249166,-0.273223 0.180277,0.87669 2.145589,3.206947 5.340744,3.536102 3.195156,0.329157 4.194264,0.861615 4.194264,0.861615 0,0 3.985883,1.525134 4.717806,2.502173 0.731923,0.97704 0.681744,1.252866 -0.409081,1.766813 -1.090818,0.513947 -3.144015,-0.550011 -5.886907,-0.172196 -2.742899,0.37782 -5.866761,0.982244 -5.957517,2.083616 -0.09076,1.10139 4.586746,1.29469 5.460558,0.9495 0.873812,-0.34519 2.850122,-0.91299 2.4121,-0.42703 -0.501366,0.55623 -4.050731,1.06051 -6.650097,3.36048 -2.599366,2.29995 -4.634606,5.4149 -2.937155,5.00034 1.697445,-0.41456 3.01584,-0.49255 5.622878,-2.35272 2.607038,-1.86018 3.996038,-4.19399 7.382299,-5.51786 3.386254,-1.32387 5.302636,-1.797242 6.862992,-0.61471 1.560357,1.18255 4.113104,2.51273 1.2689,3.38721 -2.844204,0.87451 -7.31621,-0.14723 -8.729202,0.81226 -1.412984,0.95949 -1.297282,1.28741 -0.796762,1.60861 0.500512,0.3212 2.899177,-0.44131 3.743923,-0.18315 0.524597,0.16032 -2.031129,0.64817 -3.935029,1.83618 -1.903909,1.18801 -2.612801,1.53033 -2.054439,2.01549 0.558371,0.48516 2.861479,0.11502 4.226215,-0.45869 1.364729,-0.57372 3.429716,-1.98451 3.057378,-1.26314 -0.372337,0.72136 -2.346569,1.03077 -3.038187,2.3626 -0.691627,1.33182 1.289323,1.40723 2.86531,0.33491 1.575986,-1.07231 2.630347,-3.67524 5.636592,-4.71753 3.006244,-1.04229 4.285618,-1.15367 6.22827,0.82611 0.643494,0.6558 -0.728949,1.26253 -2.44692,1.58242 -2.224042,0.41414 -3.995758,1.05957 -5.45125,2.73467 -1.455483,1.67509 -0.02715,1.59517 2.76593,0.94153 2.793063,-0.65363 4.809111,-2.41164 6.565102,-1.92925 1.680522,0.46167 2.290555,1.29425 3.103555,3.76843 0.642493,1.95525 0.694733,4.90943 0.436665,9.26516 -0.117731,1.98723 -1.258494,2.97701 -3.588915,3.07926 -3.119544,0.13688 -6.43738,-4.11777 -8.206738,-7.06042 -1.710513,-2.84478 -4.891396,-2.99569 -4.431422,-1.84729 0.388945,0.9711 0.973192,2.16109 1.925697,3.21079 0.732047,0.80675 1.472138,1.07054 1.982408,1.72222 1.522341,1.94425 -4.465793,-2.22876 -6.567246,-2.90695 -2.101444,-0.67819 -3.401372,-1.16376 -3.357188,-0.16137 0.03901,0.8857 1.320987,3.22135 4.917265,4.47833 3.59628,1.25698 5.643714,1.9911 5.764216,2.59388 0.120504,0.60279 -3.495245,1.38077 -7.212982,-0.53397 -3.717736,-1.91473 -5.302084,-4.4716 -7.558853,-4.59718 -2.256776,-0.12559 -1.700329,0.24963 -1.294404,1.45233 0.405917,1.20269 3.02995,3.46645 4.410999,3.82728 1.38104,0.36082 -1.36953,0.29885 -4.006316,0.45486 -2.636793,0.156 -4.826115,0.74412 -4.918786,1.73555 -0.09268,0.99143 3.558573,2.24746 6.13463,1.76257 2.576056,-0.48489 6.517803,-1.48851 7.569006,-1.12193 1.051203,0.36657 -1.307839,0.6827 -3.043943,2.03276 -1.736112,1.35005 -3.136622,3.0242 -2.245537,3.66852 0.891079,0.64432 3.95422,-0.28897 8.411156,-3.28124 4.456926,-2.99224 9.187489,-2.90985 11.61494,-2.45732 2.427443,0.45254 3.376409,1.20873 3.735026,2.85216 0.358626,1.64343 0.101822,11.20361 0.101822,15.33748 0,2.05423 0.08047,3.94477 0.08047,3.94477 l 3.193673,-2.24225 c 0,0 -0.10469,-6.84278 -0.15967,-15.11753 0,0 -0.0466,-1.49217 0.0933,-3.0805 0.1646,-1.86911 1.39919,-3.10627 2.43792,-3.45435 1.03873,-0.34807 3.02316,-0.85224 5.35637,0.89638 1.48678,1.11427 3.8555,3.58855 5.4053,4.46975 1.39347,0.7923 2.54987,1.16527 2.98198,0.71781 0.43211,-0.44747 -0.53603,-2.35521 -1.48591,-3.21847 -0.94989,-0.86326 -1.50634,-1.23847 -1.50634,-1.23847 0,0 1.11002,0.58551 2.32517,0.89424 1.21516,0.30872 5.77184,1.27791 5.16939,0.0198 -0.39804,-0.83127 -2.95963,-2.58785 -5.11222,-3.04519 -2.15257,-0.45733 -5.34544,-0.62121 -6.06711,-0.82223 0,0 -1.23485,-0.31922 -0.89588,-0.61333 0.60225,-0.52255 3.87481,-1.18243 5.24659,-1.10828 1.48653,0.0804 7.40002,0.51999 9.97415,-0.0749 2.57414,-0.59483 3.98289,-1.11266 4.53493,-1.67386 0.92621,-0.94156 -4.1981,-1.08151 -5.68237,-1.0556 -1.48427,0.0259 -3.28208,0.76513 -4.01139,0.41784 -1.09772,-0.52269 5.76,-1.35277 7.8365,-2.10388 2.07651,-0.75111 4.56973,-2.52974 5.32496,-3.36776 0.75523,-0.83804 1.06684,-1.88828 0.7322,-2.15739 -0.33464,-0.2691 -2.58853,-0.22977 -4.65736,0.96114 -2.06882,1.19089 -5.82934,3.12618 -6.4842,3.41256 -0.65489,0.28639 -3.07877,1.40471 -2.50608,0.6023 0.86212,-1.20795 3.09446,-1.54739 4.01461,-2.3883 0.92015,-0.8409 1.72805,-2.47465 0.99938,-2.60197 -1.21929,-0.21301 -3.65707,0.7532 -5.74031,2.70075 -2.29638,2.14679 -3.91223,4.09159 -5.30386,4.87669 -0.66527,0.37531 -3.70094,1.42332 -5.12736,1.61319 -1.42642,0.18986 -1.81219,0.14161 -1.81219,0.14161 0,0 0.64241,-1.00103 2.21839,-2.07335 1.57599,-1.07231 4.99803,-3.4966 6.0639,-5.43985 1.06588,-1.94325 4.44761,-6.67641 3.34047,-7.097 -1.10713,-0.42059 -4.31119,1.88992 -5.43492,3.6692 -1.12373,1.77929 -2.13655,3.61163 -2.13655,3.61163 0,0 0.52958,-1.16402 0.67243,-2.43129 0.14285,-1.26725 0.53252,-3.13611 -0.70957,-2.84708 -0.67875,0.15795 -1.94065,2.23346 -2.40758,3.83632 -0.46693,1.60285 -0.91467,4.30516 -1.98726,5.8636 -1.0726,1.55844 -3.49261,3.99918 -4.22361,3.75804 -1.79114,-0.59087 -2.0635,-3.07359 -1.89305,-8.27432 0.17176,-5.24036 3.15004,-7.09252 5.03781,-9.04736 1.54529,-1.6002 5.67371,-0.42897 6.79236,0.6513 1.11865,1.08026 2.67805,2.20784 3.73405,2.84928 1.05599,0.64144 3.50359,2.24841 3.98587,1.52512 0.48228,-0.72329 -1.31043,-2.61664 -2.47927,-3.42107 -1.16882,-0.80445 -2.83816,-1.9301 -2.83816,-1.9301 0,0 3.59915,1.4219 6.46063,1.53693 2.86148,0.11502 5.99206,-0.10459 6.25061,-1.04393 0.25856,-0.93934 -2.45431,-1.99179 -4.43622,-2.12216 -1.98191,-0.13038 -4.78554,-0.0814 -4.78554,-0.0814 0,0 1.86813,-0.0876 2.46036,-0.8128 0.59222,-0.72521 -0.41456,-1.69745 -2.17082,-1.50183 -1.75625,0.19563 -3.7605,1.93531 -5.02775,1.79245 -1.26726,-0.14285 -2.76401,-0.83159 -2.22196,-1.28098 0.54206,-0.44937 2.42485,-2.8468 6.65584,-3.03063 4.23101,-0.18382 6.33246,0.49436 9.21216,1.65386 2.87972,1.15951 4.54521,2.06527 4.91947,1.45386 0.37426,-0.61143 -1.03173,-2.40155 -2.13887,-2.82214 -1.10713,-0.4206 -2.54411,-0.83543 -2.54411,-0.83543 0,0 2.9743,0.27802 5.21477,-0.530951 2.24045,-0.808962 5.3672,-1.248469 5.57174,-2.131876 0.20454,-0.883407 -2.61733,-1.659029 -4.59442,-1.514538 -1.97713,0.14449 -4.47655,1.189569 -3.88774,0.727773 0.98654,-0.77374 1.97234,-0.526439 3.33131,-1.429999 1.35897,-0.903558 3.25038,-2.699142 2.96303,-3.408992 -0.28733,-0.709854 -2.4284,-0.507512 -5.41353,1.744188 -2.98514,2.251697 -8.09563,5.131272 -9.82334,4.388388 -1.27989,-0.550337 -1.11499,-1.03529 -0.18046,-2.605969 0.52663,-0.885124 1.90376,-2.340376 2.79074,-2.544171 1.46969,-0.33767 3.38179,-0.722814 4.65071,-1.118163 2.69354,-0.839222 5.60081,-3.617111 5.31443,-4.271988 -0.28639,-0.654882 -2.83112,0.09497 -3.48504,0.436325 -0.65393,0.341354 -2.43719,1.171031 -2.89804,0.532147 -0.69285,-0.960521 4.04256,-2.742283 5.16628,-4.521572 1.12373,-1.779286 2.63898,-3.180483 1.75078,-3.659886 -0.8882,-0.479403 -3.8791,1.442453 -5.01722,2.397148 -1.13813,0.954693 -2.6912,3.35861 -3.73855,3.791996 -0.54719,0.226417 0.91065,-1.98296 1.44215,-3.037043 0.5315,-1.054084 0.89808,-2.105287 0.39853,-2.371521 -0.49956,-0.266228 -3.69883,2.319145 -4.649,4.59031 -0.95017,2.271173 -0.38221,3.306061 -1.61013,5.417105 -1.22791,2.111047 -3.13758,2.969227 -3.13758,2.969227 0,0 0.51519,-1.988626 1.89843,-4.652281 1.38324,-2.663652 1.90049,-8.445957 1.59121,-9.650983 -0.44339,-1.72754 -2.18453,0.862976 -2.75468,2.852562 -0.57016,1.989582 -1.31314,6.683401 -1.68937,7.178157 -0.29953,0.393882 -0.0288,-1.649191 -0.43471,-2.851879 -0.40591,-1.202689 -1.0867,-2.400582 -1.7387,-1.949284 -0.652,0.4513 -1.22312,2.385908 -0.72864,5.511695 0.49448,3.125792 1.1462,5.808913 -0.5215,7.927634 -1.6677,2.118721 -2.91193,3.295231 -3.41052,3.083971 -0.4986,-0.21126 -0.48009,-2.301192 0.69094,-4.521225 1.17102,-2.220032 0.82035,-6.558105 -0.34656,-7.252602 -1.16691,-0.694501 -1.93201,2.728224 -2.01029,4.544252 -0.0783,1.81603 -0.0302,3.666492 -0.3282,3.525029 -0.11572,-0.05493 -0.26115,-2.634906 -0.97772,-2.732377 -0.71657,-0.09747 -1.2567,0.461852 -1.00418,2.327096 0.25251,1.865245 0.81567,2.625277 0.14805,5.331427 -0.66763,2.70615 -2.84402,5.21359 -3.43288,4.95401 -2.17698,-0.95963 -1.94878,-3.6901 -1.49495,-10.037035 0.26114,-3.652083 0.27634,-3.737356 1.71432,-5.748862 1.55005,-2.168282 4.31504,-1.67002 5.54488,-3.671119 1.22983,-2.001103 2.13366,-3.776547 1.51649,-4.480643 -0.61718,-0.704093 -2.71315,2.081979 -2.82885,1.75406 -0.1157,-0.327919 2.03908,-2.895057 2.43472,-5.431498 0.39565,-2.536433 0.79801,-4.688059 -0.14421,-5.111532 -0.94222,-0.423472 -3.25999,2.256496 -3.88706,4.137093 -0.62705,1.880597 -1.53788,6.405657 -1.53788,6.405657 -0.32988,-0.109962 0.19015,-1.707999 -0.21193,-2.690799 -0.40209,-0.9828 -1.02982,-2.291594 -1.50923,-1.403388 -0.47939,0.888205 -0.72615,4.480975 -1.26685,6.180964 -0.49716,1.563099 0.11159,3.242451 -1.44685,2.169857 -0.552849,-0.380497 -1.394194,-4.264866 0.20605,-7.097277 1.60026,-2.83241 3.76204,-8.149164 3.66772,-10.402099 -0.0943,-2.252935 -0.43567,-2.906854 -1.1861,-1.79396 -0.75043,1.112895 -1.9438,5.202969 -2.17041,4.821996 -0.22661,-0.380973 -0.11926,-3.682234 0.0564,-6.214831 0.17575,-2.532598 -0.005,-6.598683 -1.259992,-6.026884 -1.254782,0.5718 -2.550422,5.103579 -2.635702,9.669219 -0.0853,4.565644 0.457244,9.402152 -0.195779,10.836405 -0.195982,0.430451 -0.867777,-2.459393 -1.888956,-4.25623 -1.02118,-1.796838 -2.391446,-5.13395 -3.149494,-4.01427 -0.74553,1.101187 -0.917438,4.097742 0.41219,7.813837 1.329628,3.716094 5.480179,4.917089 6.396879,10.180109 0.916717,5.263017 0.886924,11.20014 -0.555485,12.63618 -1.673168,1.66578 -3.868264,-1.08726 -5.667701,-3.36542 -1.799439,-2.27815 -2.217829,-4.1955 -0.435385,-6.041275 1.78244,-1.845777 3.991032,-4.940783 3.047103,-5.002269 -2.118276,-0.137985 -2.877833,1.738776 -3.67562,1.916573 -0.595106,0.132629 1.093808,-1.76153 1.716065,-3.916991 0.622249,-2.155461 0.749747,-4.302292 -0.141346,-4.946615 -0.891075,-0.64432 -2.737412,3.842076 -3.031746,5.881836 -0.294334,2.039764 -0.353822,-1.368566 -0.485844,-2.631028 -0.132014,-1.262459 -0.481042,-2.356164 -1.247786,-2.17781 -0.766743,0.178351 -1.236832,4.750709 -0.726997,8.756065 0.509828,4.005357 1.090268,5.754904 0.03522,5.168433 -1.055043,-0.586482 -4.029066,-3.998921 -4.090756,-4.382775 -0.06167,-0.383853 0.823911,-3.203791 1.420259,-6.843527 0.596349,-3.639732 -0.05437,-6.267884 -0.657201,-6.147385 -0.602786,0.120502 -0.526978,4.463372 -0.929063,3.480573 -0.402085,-0.982796 -0.929188,-5.977664 -1.730472,-7.77834 -0.801293,-1.800676 -2.829257,-4.56976 -3.244094,-3.132784 -0.414838,1.436977 -0.246358,4.788411 0.511472,7.249724 0.757831,2.461315 2.303364,3.885573 1.220644,3.772989 -0.525954,-0.0547 -0.94989,-0.863257 -1.787919,-1.618483 -0.838037,-0.755233 -1.731994,-1.564472 -1.82755,-0.737959 -0.09555,0.826513 0.191789,1.536367 0.923712,2.51341 0.731922,0.977036 2.723421,1.657143 3.242169,3.022833 0.518749,1.36569 2.012334,5.023935 1.080672,5.205167 -0.931662,0.181232 -3.429437,-1.149914 -4.625135,-3.493606 -1.19569,-2.343689 -2.528196,-6.224706 -4.770304,-8.66011 -2.242101,-2.435403 -6.040151,-5.893981 -5.955438,-4.190773"
       sodipodi:nodetypes="csssssssscsssssssssssssssssssssssssssssssssssssssssssssssssssscccsssssscssssssssssssssssssssscsssscssssssssssscssscsssssssscsssssssssssssssssssssscssssssssssssssssssssssssscsssssssssssssssssssssssssssssssssssssssssssc" />
  </g>
  <g
     inkscape:groupmode="layer"
     id="layer2"
     inkscape:label="字符"
     style="display:inline">
    <path
       id="path843"
       style="fill:#4b3552;fill-opacity:1;stroke:none;stroke-width:0.0915918px;stroke-linecap:butt;stroke-linejoin:miter;stroke-opacity:1"
       d="m 105.56019,33.930884 c -0.55344,-2.75e-4 -1.10921,0.121148 -1.60123,0.437921 -1.63766,1.054346 -2.66834,2.199373 -2.66834,2.4193 0,0.219927 1.26446,0.03762 1.59605,0.372447 0.3316,0.334822 0.30071,1.744172 0.30071,1.744172 0,0 0.11686,10.446127 0,10.617977 -0.11685,0.171851 -0.27738,0.339961 -0.5424,0.630048 -0.66418,0.727043 -2.653421,2.731109 -4.325154,2.964376 -1.671747,0.233267 -3.421261,-0.796901 -3.421261,-1.185679 0,-0.388777 0.324428,-0.626432 0.544358,-0.777631 l 1.783527,-1.186752 c 0.571685,-0.401202 3.12762,-1.775054 2.87279,-2.726095 -0.222991,-0.832161 -3.52634,-1.748813 -5.46865,-1.730575 -0.277471,0.0025 -0.527167,0.02424 -0.736128,0.06798 -1.671746,0.349899 -5.62755,4.402539 -5.753979,4.781891 -0.06811,0.2044 0.441149,-0.353435 0.796949,-0.56368 0.427659,-0.252705 2.546647,-1.943817 4.218385,-2.177083 1.671746,-0.233267 3.421085,0.7969 3.421085,1.185678 0,0.388777 -0.324253,0.626434 -0.544183,0.777632 l -1.783703,1.186752 c -0.571684,0.401202 -3.127614,1.775055 -2.872787,2.726095 0.25483,0.951039 4.533222,2.012497 6.20496,1.662597 1.507663,-0.315557 4.834821,-3.736624 5.606191,-4.685112 0.0962,-0.109963 0,3.359185 0,3.359185 0,0 -0.13241,0.639022 -0.38479,0.962067 -0.25237,0.32304 -0.43989,0.39128 -0.43989,0.659743 0,0.268464 0.35742,0.247404 0.35742,0.247404 l 3.95062,-0.04687 c 0,0 0.30761,-0.0054 0.30554,-0.260106 -0.003,-0.254665 -0.12598,-0.295819 -0.50752,-0.682642 -0.33713,-0.341812 -0.38496,-0.879598 -0.38496,-0.879598 l 0.0345,-16.082154 c -0.0275,-1.017157 -0.0893,-1.67683 0.2406,-2.061699 0.32989,-0.38487 0.60455,-0.440019 1.23684,-0.247583 0.89959,0.273787 2.17202,1.622061 2.227,1.319667 0.0549,-0.302399 -0.63246,-1.264541 -1.34722,-1.841846 -0.49139,-0.396894 -1.6978,-0.987132 -2.91536,-0.987826 z"
       sodipodi:nodetypes="ssscczsssccsssssssccssccsscccsccssssss" />
    <path
       id="path894"
       style="fill:#804058;fill-opacity:1;stroke:none;stroke-width:0.0915918px;stroke-linecap:butt;stroke-linejoin:miter;stroke-opacity:1"
       d="m 61.923021,51.223207 c -0.892033,0.01717 -1.889597,0.310713 -2.94291,1.05652 -1.20534,0.853458 -1.734917,2.165432 -1.961876,3.382619 -0.291262,1.562008 0.16689,3.029641 0.01295,3.145324 -0.150995,0.113474 -1.715355,-0.717855 -2.950148,-0.798832 -1.235514,-0.08102 -2.633589,0.17926 -3.732172,1.166358 -2.792759,2.50936 -1.55522,5.760183 -0.622155,6.887637 0.933066,1.127454 2.837937,2.021612 4.237532,1.321813 1.091353,-0.545675 0.894421,-1.911362 0.77779,-2.339017 -0.116633,-0.427656 -0.311097,-0.03881 -0.660995,0.194453 -0.349897,0.233267 -2.374401,0.937962 -3.771165,-0.505362 -1.166331,-1.20521 -0.951752,-3.047738 -0.03879,-4.160072 0.796421,-0.970371 2.17712,-1.243928 3.809989,-0.816273 1.867629,0.489143 2.643766,2.09935 3.499078,3.110171 0.85531,1.010821 3.615531,4.5098 3.615531,4.5098 0,0 0.388844,0.427616 0.544362,0.855271 0.155509,0.427654 -0.116695,0.816457 -0.07782,1.049722 0.03887,0.233267 0.311097,0.699746 0.777626,0.272091 0.192254,-0.176228 0.449061,-0.444561 0.890954,-0.839078 0.629532,-0.57922 1.251346,-1.086159 2.00571,-1.641138 0.482369,-0.34385 0.883066,-0.56187 1.097403,-0.710454 0.520129,-0.360567 0.125181,-0.729165 -0.09374,-0.818598 -0.218915,-0.08943 -0.658202,0.09013 -1.040957,-0.155991 -0.382747,-0.246117 -0.713943,-0.719672 -0.713943,-0.719672 0,0 -2.802999,-3.464897 -3.59997,-4.522323 -0.796973,-1.057428 -2.196025,-2.169888 -2.260624,-4.099428 -0.05647,-1.686994 0.51525,-2.9733 1.637553,-3.535749 1.286485,-0.644734 3.13075,-0.446998 4.048621,0.9567 1.099218,1.681029 -0.03514,3.499847 -0.339891,3.789592 -0.304775,0.289744 -0.726756,0.393405 -0.335415,0.601605 0.391334,0.2082 1.634117,0.790086 2.407345,-0.153806 0.991615,-1.210491 0.461906,-3.209614 -0.35331,-4.425008 -0.618773,-0.922519 -2.163577,-2.091643 -3.866544,-2.058875 z"
       sodipodi:nodetypes="sssssssssssssscsssccssscsssssssss" />
    <path
       style="color:#000000;font-style:normal;font-variant:normal;font-weight:normal;font-stretch:normal;font-size:medium;line-height:normal;font-family:sans-serif;font-variant-ligatures:normal;font-variant-position:normal;font-variant-caps:normal;font-variant-numeric:normal;font-variant-alternates:normal;font-variant-east-asian:normal;font-feature-settings:normal;font-variation-settings:normal;text-indent:0;text-align:start;text-decoration:none;text-decoration-line:none;text-decoration-style:solid;text-decoration-color:#000000;letter-spacing:normal;word-spacing:normal;text-transform:none;writing-mode:lr-tb;direction:ltr;text-orientation:mixed;dominant-baseline:auto;baseline-shift:baseline;text-anchor:start;white-space:normal;shape-padding:0;shape-margin:0;inline-size:0;clip-rule:nonzero;display:inline;overflow:visible;visibility:visible;opacity:1;isolation:auto;mix-blend-mode:normal;color-interpolation:sRGB;color-interpolation-filters:linearRGB;solid-color:#000000;solid-opacity:1;vector-effect:none;fill:#804058;fill-opacity:1;fill-rule:nonzero;stroke:none;stroke-width:1.73086;stroke-linecap:butt;stroke-linejoin:miter;stroke-miterlimit:4;stroke-dasharray:none;stroke-dashoffset:0;stroke-opacity:1;color-rendering:auto;image-rendering:auto;shape-rendering:auto;text-rendering:auto;enable-background:accumulate;stop-color:#000000;stop-opacity:1"
       d="m 139.20935,51.917016 c -0.29144,1.392445 -1.78278,7.862922 -1.52372,8.413424 0.29144,0.226677 5.53057,-1.047305 5.82201,-0.755863 0.16191,0.226676 -1.04575,4.754333 -0.89792,5.300226 0.46683,0.236155 6.68617,-0.364864 6.84932,-0.06875 -0.59073,0.851367 -2.08747,1.674726 -3.77849,2.298597 -3.27652,1.208811 -5.16787,1.633222 -8.46768,1.560851 -0.91589,-0.02009 -2.28689,-0.183633 -3.15721,-0.437246 -1.19971,-0.3496 -1.7154,-0.853137 -2.02337,-0.961055 -0.50797,-0.177995 -0.6068,0.102731 -0.33763,0.53828 0.6059,0.980422 2.72005,1.870862 5.12281,2.120204 3.5821,0.371727 6.54894,-0.28345 9.94229,-1.538167 2.67074,-0.98752 4.15078,-2.212761 5.84907,-3.931622 0.83747,-0.847623 2.30905,-2.474526 1.60133,-2.563978 -1.20153,-0.15186 -8.59542,0.612492 -9.3726,0.223903 0.091,-1.882951 1.38898,-5.558827 0.94233,-5.907609 -0.44665,-0.348779 -6.12138,1.513985 -6.02423,0.445364 -0.16192,-0.647648 0.85143,-3.748315 1.06705,-4.539309 0.0324,-0.53431 -0.37906,-0.486475 -0.73787,-0.596504 -0.35881,-0.110029 -0.69739,-0.183629 -0.87549,0.399254 z"
       id="path921"
       sodipodi:nodetypes="cccccsssssssssczccsc" />
  </g>
  <g
     inkscape:groupmode="layer"
     id="layer3"
     inkscape:label="月相"
     style="display:inline">
    <path
       id="path924"
       style="fill:#ab3627;fill-opacity:1;stroke:none;stroke-width:1.73086;stroke-miterlimit:4;stroke-dasharray:none;stroke-opacity:0.321569"
       d="m 175.37871,169.45273 a 15.284507,15.284507 0 0 1 -21.61556,0 15.284507,15.284507 0 0 1 0,-21.61556 15.284507,15.284507 0 0 1 21.61556,-10e-6 15.284507,15.284507 0 0 1 0,21.61557 z" />
    <path
       id="path924-7"
       style="fill:#4b3552;fill-opacity:1;stroke:none;stroke-width:1.73086;stroke-miterlimit:4;stroke-dasharray:none;stroke-opacity:0.321569"
       d="m 41.419083,25.595697 a 15.284507,15.284507 0 0 0 -6.979546,1.669216 13.600621,13.600621 0 0 1 15.302195,2.738081 13.600621,13.600621 0 0 1 0,19.234184 13.600621,13.600621 0 0 1 -19.234184,0 13.600621,13.600621 0 0 1 -2.737547,-15.303627 15.284507,15.284507 0 0 0 2.806956,17.75441 15.284507,15.284507 0 0 0 21.615559,0 15.284507,15.284507 0 0 0 0,-21.615559 15.284507,15.284507 0 0 0 -10.773433,-4.476705 z" />
    <path
       id="path924-6"
       style="fill:#804058;fill-opacity:1;stroke:none;stroke-width:1.73086;stroke-miterlimit:4;stroke-dasharray:none;stroke-opacity:0.321569"
       d="m 183.95598,84.035808 a 15.284507,15.284507 0 0 0 -15.28449,15.28449 15.284507,15.284507 0 0 0 0.52272,3.963292 15.284507,15.284507 0 0 0 14.76177,11.32119 15.284507,15.284507 0 0 0 14.53887,-10.56914 13.600621,13.600621 0 0 1 -12.75696,8.88525 13.600621,13.600621 0 0 1 -12.08433,-7.36004 28.23748,28.23748 0 0 0 0.005,0.003 28.23748,28.23748 0 0 0 0.12557,0.0503 28.23748,28.23748 0 0 0 0.12576,0.0496 28.23748,28.23748 0 0 0 0.12595,0.049 28.23748,28.23748 0 0 0 0.12628,0.0485 28.23748,28.23748 0 0 0 0.12649,0.0479 28.23748,28.23748 0 0 0 0.12683,0.0472 28.23748,28.23748 0 0 0 0.12683,0.0465 28.23748,28.23748 0 0 0 0.1272,0.0462 28.23748,28.23748 0 0 0 0.12736,0.0453 28.23748,28.23748 0 0 0 0.12772,0.0449 28.23748,28.23748 0 0 0 0.12773,0.0442 28.23748,28.23748 0 0 0 0.12809,0.0434 28.23748,28.23748 0 0 0 0.12809,0.0431 28.23748,28.23748 0 0 0 0.12844,0.0422 28.23748,28.23748 0 0 0 0.12862,0.0419 28.23748,28.23748 0 0 0 0.12898,0.041 28.23748,28.23748 0 0 0 0.12897,0.0405 28.23748,28.23748 0 0 0 0.12918,0.0398 28.23748,28.23748 0 0 0 0.1295,0.0391 28.23748,28.23748 0 0 0 0.12952,0.0386 28.23748,28.23748 0 0 0 0.12988,0.0381 28.23748,28.23748 0 0 0 0.12987,0.0374 28.23748,28.23748 0 0 0 0.13022,0.0367 28.23748,28.23748 0 0 0 0.13025,0.0362 28.23748,28.23748 0 0 0 0.1304,0.0356 28.23748,28.23748 0 0 0 0.13076,0.0349 28.23748,28.23748 0 0 0 0.13077,0.0341 28.23748,28.23748 0 0 0 0.13095,0.0338 28.23748,28.23748 0 0 0 0.13112,0.0329 28.23748,28.23748 0 0 0 0.13131,0.0324 28.23748,28.23748 0 0 0 0.13148,0.0318 28.23748,28.23748 0 0 0 0.13167,0.0311 28.23748,28.23748 0 0 0 0.13166,0.0304 28.23748,28.23748 0 0 0 0.13185,0.0298 28.23748,28.23748 0 0 0 0.1322,0.0293 28.23748,28.23748 0 0 0 0.13202,0.0284 28.23748,28.23748 0 0 0 0.13237,0.0281 28.23748,28.23748 0 0 0 0.13238,0.0274 28.23748,28.23748 0 0 0 0.13256,0.0267 28.23748,28.23748 0 0 0 0.13274,0.0261 28.23748,28.23748 0 0 0 0.1329,0.0254 28.23748,28.23748 0 0 0 0.13292,0.0247 28.23748,28.23748 0 0 0 0.1331,0.0241 28.23748,28.23748 0 0 0 0.13309,0.0236 28.23748,28.23748 0 0 0 0.13328,0.0229 28.23748,28.23748 0 0 0 0.13344,0.0222 28.23748,28.23748 0 0 0 0.13345,0.0217 28.23748,28.23748 0 0 0 0.13363,0.021 28.23748,28.23748 0 0 0 0.13364,0.0204 28.23748,28.23748 0 0 0 0.1338,0.0197 28.23748,28.23748 0 0 0 0.134,0.019 28.23748,28.23748 0 0 0 0.13399,0.0183 28.23748,28.23748 0 0 0 0.13398,0.0177 28.23748,28.23748 0 0 0 0.13416,0.0171 28.23748,28.23748 0 0 0 0.13418,0.0164 28.23748,28.23748 0 0 0 0.13434,0.0159 28.23748,28.23748 0 0 0 0.13435,0.015 28.23748,28.23748 0 0 0 0.13452,0.0147 28.23748,28.23748 0 0 0 0.13453,0.0138 28.23748,28.23748 0 0 0 0.13452,0.0134 28.23748,28.23748 0 0 0 0.13471,0.0125 28.23748,28.23748 0 0 0 0.13469,0.0119 28.23748,28.23748 0 0 0 0.1347,0.0112 28.23748,28.23748 0 0 0 0.13472,0.0107 28.23748,28.23748 0 0 0 0.13487,0.01 28.23748,28.23748 0 0 0 0.13507,0.009 28.23748,28.23748 0 0 0 0.13488,0.009 28.23748,28.23748 0 0 0 0.13488,0.008 28.23748,28.23748 0 0 0 0.13507,0.008 28.23748,28.23748 0 0 0 0.13506,0.007 28.23748,28.23748 0 0 0 0.13506,0.006 28.23748,28.23748 0 0 0 0.13524,0.005 28.23748,28.23748 0 0 0 0.13505,0.004 28.23748,28.23748 0 0 0 0.13525,0.004 28.23748,28.23748 0 0 0 0.13524,0.003 28.23748,28.23748 0 0 0 0.13506,0.004 28.23748,28.23748 0 0 0 0.13524,0.003 28.23748,28.23748 0 0 0 0.13525,0.002 28.23748,28.23748 0 0 0 0.13523,7.7e-4 28.23748,28.23748 0 0 0 0.13524,3.5e-4 28.23748,28.23748 0 0 0 0.13417,-3.5e-4 28.23748,28.23748 0 0 0 0.13524,-7.7e-4 28.23748,28.23748 0 0 0 0.13525,-0.002 28.23748,28.23748 0 0 0 0.13522,-0.003 28.23748,28.23748 0 0 0 0.13507,-0.004 28.23748,28.23748 0 0 0 0.13524,-0.003 28.23748,28.23748 0 0 0 0.13525,-0.004 28.23748,28.23748 0 0 0 0.13506,-0.005 28.23748,28.23748 0 0 0 0.13506,-0.005 28.23748,28.23748 0 0 0 0.13524,-0.006 28.23748,28.23748 0 0 0 0.13506,-0.007 28.23748,28.23748 0 0 0 0.13488,-0.008 28.23748,28.23748 0 0 0 0.13506,-0.008 28.23748,28.23748 0 0 0 0.13489,-0.009 28.23748,28.23748 0 0 0 0.13506,-0.01 28.23748,28.23748 0 0 0 0.1347,-0.01 28.23748,28.23748 0 0 0 0.13488,-0.0105 28.23748,28.23748 0 0 0 0.1347,-0.0115 28.23748,28.23748 0 0 0 0.13471,-0.0118 28.23748,28.23748 0 0 0 0.1347,-0.0127 28.23748,28.23748 0 0 0 0.13453,-0.0132 28.23748,28.23748 0 0 0 0.13452,-0.014 28.23748,28.23748 0 0 0 0.13452,-0.0145 28.23748,28.23748 0 0 0 0.13436,-0.0152 28.23748,28.23748 0 0 0 0.13435,-0.0157 28.23748,28.23748 0 0 0 0.13416,-0.0164 28.23748,28.23748 0 0 0 0.13416,-0.0171 28.23748,28.23748 0 0 0 0.134,-0.0177 28.23748,28.23748 0 0 0 0.13398,-0.0183 28.23748,28.23748 0 0 0 0.13398,-0.019 28.23748,28.23748 0 0 0 0.13382,-0.0197 28.23748,28.23748 0 0 0 0.13363,-0.0204 28.23748,28.23748 0 0 0 0.13363,-0.021 28.23748,28.23748 0 0 0 0.13345,-0.0217 28.23748,28.23748 0 0 0 0.13345,-0.0222 28.23748,28.23748 0 0 0 0.13327,-0.0229 28.23748,28.23748 0 0 0 0.1331,-0.0236 28.23748,28.23748 0 0 0 0.13309,-0.0242 28.23748,28.23748 0 0 0 0.13291,-0.0247 28.23748,28.23748 0 0 0 0.13292,-0.0254 28.23748,28.23748 0 0 0 0.13274,-0.0262 28.23748,28.23748 0 0 0 0.13256,-0.0267 28.23748,28.23748 0 0 0 0.13238,-0.0274 28.23748,28.23748 0 0 0 0.13237,-0.0279 28.23748,28.23748 0 0 0 0.13202,-0.0286 28.23748,28.23748 0 0 0 0.1322,-0.0293 28.23748,28.23748 0 0 0 0.13184,-0.0298 28.23748,28.23748 0 0 0 0.13166,-0.0306 28.23748,28.23748 0 0 0 0.13166,-0.0311 28.23748,28.23748 0 0 0 0.13149,-0.0317 28.23748,28.23748 0 0 0 0.13131,-0.0324 28.23748,28.23748 0 0 0 0.13112,-0.0331 28.23748,28.23748 0 0 0 0.13095,-0.0336 28.23748,28.23748 0 0 0 0.13076,-0.0344 28.23748,28.23748 0 0 0 0.13077,-0.0349 28.23748,28.23748 0 0 0 0.13042,-0.0354 28.23748,28.23748 0 0 0 0.1304,-0.0362 28.23748,28.23748 0 0 0 0.13005,-0.0369 28.23748,28.23748 0 0 0 0.13006,-0.0374 28.23748,28.23748 0 0 0 0.12969,-0.0379 28.23748,28.23748 0 0 0 0.12952,-0.0386 28.23748,28.23748 0 0 0 0.12952,-0.0393 28.23748,28.23748 0 0 0 0.12915,-0.0398 28.23748,28.23748 0 0 0 0.12916,-0.0405 28.23748,28.23748 0 0 0 0.12881,-0.0411 28.23748,28.23748 0 0 0 0.12862,-0.0417 28.23748,28.23748 0 0 0 0.12843,-0.0424 28.23748,28.23748 0 0 0 0.12828,-0.043 28.23748,28.23748 0 0 0 0.1279,-0.0434 28.23748,28.23748 0 0 0 0.12791,-0.0442 28.23748,28.23748 0 0 0 0.12754,-0.0449 28.23748,28.23748 0 0 0 0.12738,-0.0453 28.23748,28.23748 0 0 0 0.12718,-0.0462 28.23748,28.23748 0 0 0 0.127,-0.0465 28.23748,28.23748 0 0 0 0.12667,-0.0472 28.23748,28.23748 0 0 0 0.12646,-0.0479 28.23748,28.23748 0 0 0 0.1263,-0.0483 28.23748,28.23748 0 0 0 0.12594,-0.049 28.23748,28.23748 0 0 0 0.12576,-0.0498 28.23748,28.23748 0 0 0 0.12559,-0.0503 28.23748,28.23748 0 0 0 0.1254,-0.0508 28.23748,28.23748 0 0 0 0.12504,-0.0515 28.23748,28.23748 0 0 0 0.12486,-0.052 28.23748,28.23748 0 0 0 0.1245,-0.0526 28.23748,28.23748 0 0 0 0.12434,-0.0533 28.23748,28.23748 0 0 0 0.12396,-0.0538 28.23748,28.23748 0 0 0 0.1238,-0.0544 28.23748,28.23748 0 0 0 0.12361,-0.0549 28.23748,28.23748 0 0 0 0.12325,-0.0556 28.23748,28.23748 0 0 0 0.12309,-0.0562 28.23748,28.23748 0 0 0 0.12271,-0.0569 28.23748,28.23748 0 0 0 0.12236,-0.0574 28.23748,28.23748 0 0 0 0.12218,-0.0579 28.23748,28.23748 0 0 0 0.12201,-0.0584 28.23748,28.23748 0 0 0 0.12164,-0.0591 28.23748,28.23748 0 0 0 0.12128,-0.0598 28.23748,28.23748 0 0 0 0.12094,-0.0603 28.23748,28.23748 0 0 0 0.12075,-0.0608 28.23748,28.23748 0 0 0 0.12057,-0.0615 28.23748,28.23748 0 0 0 0.12022,-0.062 28.23748,28.23748 0 0 0 0.11985,-0.0626 28.23748,28.23748 0 0 0 0.1195,-0.0632 28.23748,28.23748 0 0 0 0.11932,-0.0637 28.23748,28.23748 0 0 0 0.11896,-0.0644 28.23748,28.23748 0 0 0 0.11859,-0.0648 28.23748,28.23748 0 0 0 0.11843,-0.0655 28.23748,28.23748 0 0 0 0.11789,-0.066 28.23748,28.23748 0 0 0 0.11771,-0.0665 28.23748,28.23748 0 0 0 0.11753,-0.0672 28.23748,28.23748 0 0 0 0.117,-0.0677 28.23748,28.23748 0 0 0 0.11681,-0.0684 28.23748,28.23748 0 0 0 0.0818,-0.0484 15.284507,15.284507 0 0 0 0.63077,-4.345222 15.284507,15.284507 0 0 0 -15.28448,-15.284488 z" />
    <path
       id="path924-6-2"
       style="fill:#804058;fill-opacity:1;stroke:none;stroke-width:1.73086;stroke-miterlimit:4;stroke-dasharray:none;stroke-opacity:0.321569"
       d="m 15.401772,86.626484 a 15.284507,15.284507 0 0 0 -14.65372136,10.939262 28.23748,28.23748 0 0 1 0.081752,-0.04848 28.23748,28.23748 0 0 1 0.1168186,-0.06833 28.23748,28.23748 0 0 1 0.11698966,-0.06761 28.23748,28.23748 0 0 1 0.117532,-0.06726 28.23748,28.23748 0 0 1 0.1177101,-0.06654 28.23748,28.23748 0 0 1 0.1178892,-0.06601 28.23748,28.23748 0 0 1 0.1184236,-0.06547 28.23748,28.23748 0 0 1 0.1186026,-0.06475 28.23748,28.23748 0 0 1 0.1189598,-0.06439 28.23748,28.23748 0 0 1 0.1193239,-0.06368 28.23748,28.23748 0 0 1 0.1194942,-0.06315 28.23748,28.23748 0 0 1 0.1198593,-0.06261 28.23748,28.23748 0 0 1 0.1202085,-0.06207 28.23748,28.23748 0 0 1 0.1205727,-0.06153 28.23748,28.23748 0 0 1 0.1207508,-0.06082 28.23748,28.23748 0 0 1 0.1209299,-0.06029 28.23748,28.23748 0 0 1 0.121287,-0.05975 28.23748,28.23748 0 0 1 0.1216424,-0.05903 28.23748,28.23748 0 0 1 0.1220083,-0.0585 28.23748,28.23748 0 0 1 0.1221786,-0.05796 28.23748,28.23748 0 0 1 0.1223568,-0.05743 28.23748,28.23748 0 0 1 0.1227209,-0.05689 28.23748,28.23748 0 0 1 0.123079,-0.05617 28.23748,28.23748 0 0 1 0.1232562,-0.05563 28.23748,28.23748 0 0 1 0.1236055,-0.05492 28.23748,28.23748 0 0 1 0.1237924,-0.05438 28.23748,28.23748 0 0 1 0.1239705,-0.05385 28.23748,28.23748 0 0 1 0.1243348,-0.05331 28.23748,28.23748 0 0 1 0.1245049,-0.05259 28.23748,28.23748 0 0 1 0.124863,-0.05206 28.23748,28.23748 0 0 1 0.1250403,-0.05152 28.23748,28.23748 0 0 1 0.1254053,-0.05081 28.23748,28.23748 0 0 1 0.1255765,-0.05027 28.23748,28.23748 0 0 1 0.1257616,-0.04973 28.23748,28.23748 0 0 1 0.1259407,-0.04902 28.23748,28.23748 0 0 1 0.1262977,-0.0483 28.23748,28.23748 0 0 1 0.1264681,-0.04795 28.23748,28.23748 0 0 1 0.1266541,-0.04722 28.23748,28.23748 0 0 1 0.1270112,-0.04651 28.23748,28.23748 0 0 1 0.1271964,-0.04615 28.23748,28.23748 0 0 1 0.1273684,-0.04526 28.23748,28.23748 0 0 1 0.1275456,-0.04489 28.23748,28.23748 0 0 1 0.1279037,-0.04418 28.23748,28.23748 0 0 1 0.1279107,-0.04347 28.23748,28.23748 0 0 1 0.12826,-0.04294 28.23748,28.23748 0 0 1 0.128446,-0.0424 28.23748,28.23748 0 0 1 0.1286163,-0.04167 28.23748,28.23748 0 0 1 0.1288032,-0.04114 28.23748,28.23748 0 0 1 0.1291594,-0.0406 28.23748,28.23748 0 0 1 0.1291595,-0.03972 28.23748,28.23748 0 0 1 0.1295166,-0.03936 28.23748,28.23748 0 0 1 0.1295087,-0.03865 28.23748,28.23748 0 0 1 0.1297027,-0.03792 28.23748,28.23748 0 0 1 0.1300519,-0.03739 28.23748,28.23748 0 0 1 0.130051,-0.03686 28.23748,28.23748 0 0 1 0.1304091,-0.03614 28.23748,28.23748 0 0 1 0.1304082,-0.03542 28.23748,28.23748 0 0 1 0.1307733,-0.03488 28.23748,28.23748 0 0 1 0.1307653,-0.03435 28.23748,28.23748 0 0 1 0.1309435,-0.03364 28.23748,28.23748 0 0 1 0.1311296,-0.03309 28.23748,28.23748 0 0 1 0.1313006,-0.03238 28.23748,28.23748 0 0 1 0.1314867,-0.03166 28.23748,28.23748 0 0 1 0.1316658,-0.03113 28.23748,28.23748 0 0 1 0.1316569,-0.03059 28.23748,28.23748 0 0 1 0.1318439,-0.0297 28.23748,28.23748 0 0 1 0.1322001,-0.02934 28.23748,28.23748 0 0 1 0.132022,-0.02863 28.23748,28.23748 0 0 1 0.1323783,-0.0279 28.23748,28.23748 0 0 1 0.1323792,-0.02736 28.23748,28.23748 0 0 1 0.1325496,-0.02665 28.23748,28.23748 0 0 1 0.132743,-0.02612 28.23748,28.23748 0 0 1 0.132914,-0.02541 28.23748,28.23748 0 0 1 0.1329145,-0.02469 28.23748,28.23748 0 0 1 0.133093,-0.02415 28.23748,28.23748 0 0 1 0.133091,-0.02361 28.23748,28.23748 0 0 1 0.133271,-0.0229 28.23748,28.23748 0 0 1 0.133458,-0.02218 28.23748,28.23748 0 0 1 0.133449,-0.02164 28.23748,28.23748 0 0 1 0.133628,-0.02093 28.23748,28.23748 0 0 1 0.133635,-0.02039 28.23748,28.23748 0 0 1 0.133806,-0.01967 28.23748,28.23748 0 0 1 0.133984,-0.01896 28.23748,28.23748 0 0 1 0.133992,-0.01842 28.23748,28.23748 0 0 1 0.133985,-0.01771 28.23748,28.23748 0 0 1 0.13417,-0.01717 28.23748,28.23748 0 0 1 0.13417,-0.01646 28.23748,28.23748 0 0 1 0.134342,-0.01574 28.23748,28.23748 0 0 1 0.134349,-0.0152 28.23748,28.23748 0 0 1 0.13452,-0.01449 28.23748,28.23748 0 0 1 0.134527,-0.01395 28.23748,28.23748 0 0 1 0.134527,-0.01324 28.23748,28.23748 0 0 1 0.134699,-0.0127 28.23748,28.23748 0 0 1 0.134705,-0.0118 28.23748,28.23748 0 0 1 0.134706,-0.01145 28.23748,28.23748 0 0 1 0.134884,-0.01056 28.23748,28.23748 0 0 1 0.134698,-0.01001 28.23748,28.23748 0 0 1 0.135063,-0.0095 28.23748,28.23748 0 0 1 0.134884,-0.0088 28.23748,28.23748 0 0 1 0.135063,-0.0081 28.23748,28.23748 0 0 1 0.134884,-0.0074 28.23748,28.23748 0 0 1 0.135055,-0.0068 28.23748,28.23748 0 0 1 0.135241,-0.0063 28.23748,28.23748 0 0 1 0.135063,-0.0054 28.23748,28.23748 0 0 1 0.135062,-0.005 28.23748,28.23748 0 0 1 0.135241,-0.0041 28.23748,28.23748 0 0 1 0.135241,-0.0036 28.23748,28.23748 0 0 1 0.135063,-0.0029 28.23748,28.23748 0 0 1 0.135241,-0.0024 28.23748,28.23748 0 0 1 0.135241,-0.0018 28.23748,28.23748 0 0 1 0.135241,-0.0011 28.23748,28.23748 0 0 1 0.134163,-3.67e-4 28.23748,28.23748 0 0 1 0.135241,3.67e-4 28.23748,28.23748 0 0 1 0.135241,0.0011 28.23748,28.23748 0 0 1 0.135241,0.0018 28.23748,28.23748 0 0 1 0.135241,0.0024 28.23748,28.23748 0 0 1 0.135062,0.0029 28.23748,28.23748 0 0 1 0.135234,0.0036 28.23748,28.23748 0 0 1 0.135241,0.0043 28.23748,28.23748 0 0 1 0.135063,0.0048 28.23748,28.23748 0 0 1 0.135241,0.0055 28.23748,28.23748 0 0 1 0.135062,0.0061 28.23748,28.23748 0 0 1 0.135063,0.0068 28.23748,28.23748 0 0 1 0.135063,0.0075 28.23748,28.23748 0 0 1 0.134883,0.0081 28.23748,28.23748 0 0 1 0.134877,0.0088 28.23748,28.23748 0 0 1 0.135063,0.0093 28.23748,28.23748 0 0 1 0.134884,0.01001 28.23748,28.23748 0 0 1 0.134706,0.01073 28.23748,28.23748 0 0 1 0.134698,0.01127 28.23748,28.23748 0 0 1 0.134706,0.01199 28.23748,28.23748 0 0 1 0.134705,0.01252 28.23748,28.23748 0 0 1 0.134528,0.01342 28.23748,28.23748 0 0 1 0.134519,0.01378 28.23748,28.23748 0 0 1 0.134528,0.01466 28.23748,28.23748 0 0 1 0.134341,0.01502 28.23748,28.23748 0 0 1 0.134349,0.01592 28.23748,28.23748 0 0 1 0.13417,0.01646 28.23748,28.23748 0 0 1 0.134164,0.01717 28.23748,28.23748 0 0 1 0.133992,0.01771 28.23748,28.23748 0 0 1 0.133984,0.01843 28.23748,28.23748 0 0 1 0.133992,0.01896 28.23748,28.23748 0 0 1 0.133806,0.01968 28.23748,28.23748 0 0 1 0.133628,0.02039 28.23748,28.23748 0 0 1 0.133636,0.02093 28.23748,28.23748 0 0 1 0.133449,0.02164 28.23748,28.23748 0 0 1 0.133449,0.02218 28.23748,28.23748 0 0 1 0.133278,0.0229 28.23748,28.23748 0 0 1 0.133093,0.02361 28.23748,28.23748 0 0 1 0.133092,0.02415 28.23748,28.23748 0 0 1 0.132914,0.02469 28.23748,28.23748 0 0 1 0.132914,0.0254 28.23748,28.23748 0 0 1 0.132736,0.02612 28.23748,28.23748 0 0 1 0.132556,0.02665 28.23748,28.23748 0 0 1 0.13238,0.02737 28.23748,28.23748 0 0 1 0.132379,0.02809 28.23748,28.23748 0 0 1 0.132021,0.02844 28.23748,28.23748 0 0 1 0.132201,0.02934 28.23748,28.23748 0 0 1 0.131835,0.02987 28.23748,28.23748 0 0 1 0.131666,0.03041 28.23748,28.23748 0 0 1 0.131664,0.03113 28.23748,28.23748 0 0 1 0.131479,0.03185 28.23748,28.23748 0 0 1 0.131309,0.03238 28.23748,28.23748 0 0 1 0.131122,0.03292 28.23748,28.23748 0 0 1 0.130952,0.03381 28.23748,28.23748 0 0 1 0.130765,0.03417 28.23748,28.23748 0 0 1 0.130766,0.03488 28.23748,28.23748 0 0 1 0.130416,0.03559 28.23748,28.23748 0 0 1 0.13023,0.03614 28.23748,28.23748 0 0 1 0.13023,0.03667 28.23748,28.23748 0 0 1 0.129873,0.03739 28.23748,28.23748 0 0 1 0.129873,0.0381 28.23748,28.23748 0 0 1 0.129517,0.03864 28.23748,28.23748 0 0 1 0.129516,0.03918 28.23748,28.23748 0 0 1 0.12916,0.03989 28.23748,28.23748 0 0 1 0.128981,0.0406 28.23748,28.23748 0 0 1 0.128974,0.04096 28.23748,28.23748 0 0 1 0.128624,0.04186 28.23748,28.23748 0 0 1 0.128438,0.04222 28.23748,28.23748 0 0 1 0.128089,0.04311 28.23748,28.23748 0 0 1 0.128082,0.04347 28.23748,28.23748 0 0 1 0.127732,0.04418 28.23748,28.23748 0 0 1 0.127725,0.0449 28.23748,28.23748 0 0 1 0.127368,0.04526 28.23748,28.23748 0 0 1 0.127189,0.04615 28.23748,28.23748 0 0 1 0.126833,0.04651 28.23748,28.23748 0 0 1 0.126832,0.04722 28.23748,28.23748 0 0 1 0.126476,0.04795 28.23748,28.23748 0 0 1 0.126297,0.04847 28.23748,28.23748 0 0 1 0.125941,0.04902 28.23748,28.23748 0 0 1 0.125754,0.04955 28.23748,28.23748 0 0 1 0.125584,0.05027 28.23748,28.23748 0 0 1 0.0054,0.0024 13.600621,13.600621 0 0 1 1.516265,6.240374 13.600621,13.600621 0 0 1 -13.60056,13.6007 A 13.600621,13.600621 0 0 1 0.86315274,106.62773 15.284507,15.284507 0 0 0 15.401669,117.19545 15.284507,15.284507 0 0 0 30.686156,101.91096 15.284507,15.284507 0 0 0 30.163443,97.947669 15.284507,15.284507 0 0 0 15.401669,86.626476 Z" />
    <path
       id="path924-6-2-3"
       style="fill:#2a2547;fill-opacity:1;stroke:none;stroke-width:1.73086;stroke-miterlimit:4;stroke-dasharray:none;stroke-opacity:0.321569"
       d="m 85.085098,17.3006 a 15.284507,15.284507 0 0 1 10.939259,-14.6537239 28.23748,28.23748 0 0 0 -0.04853,0.08175 28.23748,28.23748 0 0 0 -0.06836,0.1168181 28.23748,28.23748 0 0 0 -0.06766,0.1169896 28.23748,28.23748 0 0 0 -0.06722,0.1175321 28.23748,28.23748 0 0 0 -0.06652,0.1177101 28.23748,28.23748 0 0 0 -0.06599,0.1178892 28.23748,28.23748 0 0 0 -0.06546,0.1184236 28.23748,28.23748 0 0 0 -0.06476,0.1186026 28.23748,28.23748 0 0 0 -0.06441,0.1189598 28.23748,28.23748 0 0 0 -0.06371,0.1193239 28.23748,28.23748 0 0 0 -0.06318,0.1194942 28.23748,28.23748 0 0 0 -0.06257,0.1198593 28.23748,28.23748 0 0 0 -0.06204,0.1202085 28.23748,28.23748 0 0 0 -0.06152,0.1205727 28.23748,28.23748 0 0 0 -0.06081,0.1207508 28.23748,28.23748 0 0 0 -0.06029,0.1209299 28.23748,28.23748 0 0 0 -0.05976,0.121287 28.23748,28.23748 0 0 0 -0.05906,0.1216503 28.23748,28.23748 0 0 0 -0.05844,0.1220005 28.23748,28.23748 0 0 0 -0.05792,0.1221786 28.23748,28.23748 0 0 0 -0.05739,0.1223646 28.23748,28.23748 0 0 0 -0.05687,0.122713 28.23748,28.23748 0 0 0 -0.05616,0.123079 28.23748,28.23748 0 0 0 -0.05564,0.1232562 28.23748,28.23748 0 0 0 -0.05493,0.1236134 28.23748,28.23748 0 0 0 -0.05441,0.1237924 28.23748,28.23748 0 0 0 -0.05388,0.1239697 28.23748,28.23748 0 0 0 -0.05327,0.1243277 28.23748,28.23748 0 0 0 -0.05257,0.1245049 28.23748,28.23748 0 0 0 -0.05204,0.124863 28.23748,28.23748 0 0 0 -0.05151,0.1250403 28.23748,28.23748 0 0 0 -0.05081,0.1254053 28.23748,28.23748 0 0 0 -0.05028,0.1255765 28.23748,28.23748 0 0 0 -0.04976,0.1257616 28.23748,28.23748 0 0 0 -0.04905,0.1259406 28.23748,28.23748 0 0 0 -0.04835,0.1262978 28.23748,28.23748 0 0 0 -0.04791,0.1264751 28.23748,28.23748 0 0 0 -0.04721,0.1266549 28.23748,28.23748 0 0 0 -0.04651,0.1270104 28.23748,28.23748 0 0 0 -0.04616,0.1271893 28.23748,28.23748 0 0 0 -0.04519,0.1273684 28.23748,28.23748 0 0 0 -0.04493,0.1275457 28.23748,28.23748 0 0 0 -0.04423,0.1279107 28.23748,28.23748 0 0 0 -0.04344,0.1279037 28.23748,28.23748 0 0 0 -0.04291,0.12826 28.23748,28.23748 0 0 0 -0.04238,0.128446 28.23748,28.23748 0 0 0 -0.04168,0.1286162 28.23748,28.23748 0 0 0 -0.04116,0.1288032 28.23748,28.23748 0 0 0 -0.04063,0.1291595 28.23748,28.23748 0 0 0 -0.03975,0.1291595 28.23748,28.23748 0 0 0 -0.03931,0.129517 28.23748,28.23748 0 0 0 -0.03861,0.129516 28.23748,28.23748 0 0 0 -0.03791,0.129695 28.23748,28.23748 0 0 0 -0.03738,0.1300525 28.23748,28.23748 0 0 0 -0.03686,0.130051 28.23748,28.23748 0 0 0 -0.03615,0.130409 28.23748,28.23748 0 0 0 -0.03545,0.1304085 28.23748,28.23748 0 0 0 -0.03493,0.130773 28.23748,28.23748 0 0 0 -0.0344,0.130767 28.23748,28.23748 0 0 0 -0.0337,0.1309465 28.23748,28.23748 0 0 0 -0.03308,0.131126 28.23748,28.23748 0 0 0 -0.03238,0.131306 28.23748,28.23748 0 0 0 -0.03168,0.131482 28.23748,28.23748 0 0 0 -0.03106,0.131663 28.23748,28.23748 0 0 0 -0.03054,0.131663 28.23748,28.23748 0 0 0 -0.02975,0.131842 28.23748,28.23748 0 0 0 -0.02931,0.132199 28.23748,28.23748 0 0 0 -0.02861,0.13202 28.23748,28.23748 0 0 0 -0.02791,0.132378 28.23748,28.23748 0 0 0 -0.02738,0.132379 28.23748,28.23748 0 0 0 -0.02668,0.132556 28.23748,28.23748 0 0 0 -0.02615,0.132736 28.23748,28.23748 0 0 0 -0.02536,0.132915 28.23748,28.23748 0 0 0 -0.02466,0.132914 28.23748,28.23748 0 0 0 -0.02413,0.133094 28.23748,28.23748 0 0 0 -0.02369,0.133095 28.23748,28.23748 0 0 0 -0.0229,0.133272 28.23748,28.23748 0 0 0 -0.0222,0.133451 28.23748,28.23748 0 0 0 -0.02168,0.133453 28.23748,28.23748 0 0 0 -0.02097,0.133629 28.23748,28.23748 0 0 0 -0.02045,0.13363 28.23748,28.23748 0 0 0 -0.01974,0.133809 28.23748,28.23748 0 0 0 -0.01904,0.133988 28.23748,28.23748 0 0 0 -0.01843,0.133989 28.23748,28.23748 0 0 0 -0.01773,0.133987 28.23748,28.23748 0 0 0 -0.01711,0.134169 28.23748,28.23748 0 0 0 -0.01641,0.134166 28.23748,28.23748 0 0 0 -0.01571,0.134346 28.23748,28.23748 0 0 0 -0.01518,0.134346 28.23748,28.23748 0 0 0 -0.01448,0.134525 28.23748,28.23748 0 0 0 -0.01395,0.134525 28.23748,28.23748 0 0 0 -0.01325,0.134524 28.23748,28.23748 0 0 0 -0.01272,0.134704 28.23748,28.23748 0 0 0 -0.01176,0.134703 28.23748,28.23748 0 0 0 -0.0115,0.134704 28.23748,28.23748 0 0 0 -0.01053,0.134883 28.23748,28.23748 0 0 0 -0.01,0.134703 28.23748,28.23748 0 0 0 -0.0095,0.135062 28.23748,28.23748 0 0 0 -0.0088,0.134882 28.23748,28.23748 0 0 0 -0.0079,0.135062 28.23748,28.23748 0 0 0 -0.007,0.134882 28.23748,28.23748 0 0 0 -0.007,0.135062 28.23748,28.23748 0 0 0 -0.0061,0.135241 28.23748,28.23748 0 0 0 -0.0053,0.135061 28.23748,28.23748 0 0 0 -0.0044,0.135061 28.23748,28.23748 0 0 0 -0.0035,0.135241 28.23748,28.23748 0 0 0 -0.0035,0.13524 28.23748,28.23748 0 0 0 -0.0035,0.135062 28.23748,28.23748 0 0 0 -0.0026,0.13524 28.23748,28.23748 0 0 0 -0.0018,0.135241 28.23748,28.23748 0 0 0 -7.72e-4,0.135239 28.23748,28.23748 0 0 0 -3.86e-4,0.134167 28.23748,28.23748 0 0 0 3.86e-4,0.13524 28.23748,28.23748 0 0 0 7.72e-4,0.135241 28.23748,28.23748 0 0 0 0.0018,0.135241 28.23748,28.23748 0 0 0 0.0026,0.13524 28.23748,28.23748 0 0 0 0.0035,0.135061 28.23748,28.23748 0 0 0 0.0035,0.13524 28.23748,28.23748 0 0 0 0.0044,0.135241 28.23748,28.23748 0 0 0 0.0044,0.135062 28.23748,28.23748 0 0 0 0.0053,0.13524 28.23748,28.23748 0 0 0 0.0061,0.135061 28.23748,28.23748 0 0 0 0.007,0.135062 28.23748,28.23748 0 0 0 0.0079,0.135061 28.23748,28.23748 0 0 0 0.0079,0.134882 28.23748,28.23748 0 0 0 0.0088,0.134884 28.23748,28.23748 0 0 0 0.0093,0.135061 28.23748,28.23748 0 0 0 0.01,0.134882 28.23748,28.23748 0 0 0 0.01071,0.134705 28.23748,28.23748 0 0 0 0.01123,0.134703 28.23748,28.23748 0 0 0 0.01202,0.134703 28.23748,28.23748 0 0 0 0.01246,0.134704 28.23748,28.23748 0 0 0 0.01343,0.134525 28.23748,28.23748 0 0 0 0.01378,0.134525 28.23748,28.23748 0 0 0 0.01466,0.134525 28.23748,28.23748 0 0 0 0.01509,0.134346 28.23748,28.23748 0 0 0 0.01588,0.134346 28.23748,28.23748 0 0 0 0.01641,0.134166 28.23748,28.23748 0 0 0 0.01711,0.134168 28.23748,28.23748 0 0 0 0.01773,0.133988 28.23748,28.23748 0 0 0 0.01834,0.133988 28.23748,28.23748 0 0 0 0.01904,0.133988 28.23748,28.23748 0 0 0 0.01975,0.133809 28.23748,28.23748 0 0 0 0.02036,0.133631 28.23748,28.23748 0 0 0 0.02097,0.133631 28.23748,28.23748 0 0 0 0.02168,0.13345 28.23748,28.23748 0 0 0 0.0222,0.133452 28.23748,28.23748 0 0 0 0.0229,0.133273 28.23748,28.23748 0 0 0 0.02361,0.133093 28.23748,28.23748 0 0 0 0.02413,0.133094 28.23748,28.23748 0 0 0 0.02466,0.132915 28.23748,28.23748 0 0 0 0.02536,0.132914 28.23748,28.23748 0 0 0 0.02615,0.132736 28.23748,28.23748 0 0 0 0.02668,0.132557 28.23748,28.23748 0 0 0 0.02738,0.132379 28.23748,28.23748 0 0 0 0.02808,0.132379 28.23748,28.23748 0 0 0 0.02843,0.13202 28.23748,28.23748 0 0 0 0.02931,0.132199 28.23748,28.23748 0 0 0 0.02984,0.131841 28.23748,28.23748 0 0 0 0.03036,0.131662 28.23748,28.23748 0 0 0 0.03106,0.131664 28.23748,28.23748 0 0 0 0.03186,0.131483 28.23748,28.23748 0 0 0 0.03238,0.131304 28.23748,28.23748 0 0 0 0.03291,0.131126 28.23748,28.23748 0 0 0 0.03379,0.130948 28.23748,28.23748 0 0 0 0.03414,0.130768 28.23748,28.23748 0 0 0 0.03493,0.130768 28.23748,28.23748 0 0 0 0.03563,0.130409 28.23748,28.23748 0 0 0 0.03616,0.130233 28.23748,28.23748 0 0 0 0.03668,0.130231 28.23748,28.23748 0 0 0 0.03738,0.129872 28.23748,28.23748 0 0 0 0.03808,0.129875 28.23748,28.23748 0 0 0 0.03861,0.129516 28.23748,28.23748 0 0 0 0.03914,0.129516 28.23748,28.23748 0 0 0 0.03984,0.129158 28.23748,28.23748 0 0 0 0.04063,0.12898 28.23748,28.23748 0 0 0 0.04098,0.128978 28.23748,28.23748 0 0 0 0.04186,0.128622 28.23748,28.23748 0 0 0 0.04221,0.128442 28.23748,28.23748 0 0 0 0.04318,0.128086 28.23748,28.23748 0 0 0 0.04344,0.128083 28.23748,28.23748 0 0 0 0.04423,0.127729 28.23748,28.23748 0 0 0 0.04493,0.127727 28.23748,28.23748 0 0 0 0.04519,0.127368 28.23748,28.23748 0 0 0 0.04616,0.127191 28.23748,28.23748 0 0 0 0.04651,0.126833 28.23748,28.23748 0 0 0 0.04721,0.126831 28.23748,28.23748 0 0 0 0.04791,0.126473 28.23748,28.23748 0 0 0 0.04853,0.126298 28.23748,28.23748 0 0 0 0.04905,0.125937 28.23748,28.23748 0 0 0 0.04958,0.125762 28.23748,28.23748 0 0 0 0.05028,0.12558 28.23748,28.23748 0 0 0 0.0026,0.0055 13.600621,13.600621 0 0 0 6.240373,1.516265 A 13.600621,13.600621 0 0 0 113.97159,15.518644 13.600621,13.600621 0 0 0 105.08777,2.7620421 15.284507,15.284507 0 0 1 115.65548,17.300561 15.284507,15.284507 0 0 1 100.37099,32.585047 15.284507,15.284507 0 0 1 96.407694,32.06233 15.284507,15.284507 0 0 1 85.086502,17.300561 Z" />
    <path
       id="path924-77"
       style="fill:#ab3627;fill-opacity:1;stroke:none;stroke-width:1.73086;stroke-miterlimit:4;stroke-dasharray:none;stroke-opacity:0.321569"
       d="m 38.447558,143.74853 a 15.284507,15.284507 0 0 0 -0.352945,0.004 15.284507,15.284507 0 0 0 -0.0047,0 c -7.76e-4,3e-5 -0.0023,-1e-5 -0.0031,0 a 15.284507,15.284507 0 0 0 -0.0092,0 15.284507,15.284507 0 0 0 -0.346329,0.0126 c -0.007,0 -0.0135,7.8e-4 -0.02024,7.8e-4 a 15.284507,15.284507 0 0 0 -0.336672,0.02 c -0.01667,7.8e-4 -0.03343,0.003 -0.05011,0.004 a 15.284507,15.284507 0 0 0 -0.297856,0.0248 c -0.0277,0.003 -0.05546,0.005 -0.08317,0.008 a 15.284507,15.284507 0 0 0 -0.264044,0.0284 c -0.04375,0.004 -0.08743,0.0106 -0.131121,0.0161 a 15.284507,15.284507 0 0 0 -0.192309,0.0254 c -0.08228,0.0113 -0.164399,0.0235 -0.246513,0.0362 -2.652376,0.40946 -5.217225,1.51826 -7.397968,3.32644 a 15.284507,15.284507 0 0 0 -0.130052,0.10877 c -0.03839,0.0326 -0.07687,0.065 -0.115027,0.098 a 15.284507,15.284507 0 0 0 -0.227369,0.20037 c -0.01552,0.0139 -0.03087,0.028 -0.04631,0.042 a 15.284507,15.284507 0 0 0 -0.252415,0.23363 15.284507,15.284507 0 0 0 -0.0093,0.009 c -0.0047,0.004 -0.0098,0.009 -0.01466,0.014 a 15.284507,15.284507 0 0 0 -0.270489,0.26415 15.284507,15.284507 0 0 0 -0.263501,0.27031 c -0.0047,0.004 -0.0095,0.01 -0.01412,0.0147 -0.0031,0.004 -0.0062,0.007 -0.0095,0.01 a 15.284507,15.284507 0 0 0 -0.233086,0.25188 c -0.01404,0.0154 -0.02808,0.0309 -0.04204,0.0463 a 15.284507,15.284507 0 0 0 -0.194628,0.22111 c -0.03491,0.0403 -0.06934,0.0807 -0.103755,0.12128 a 15.284507,15.284507 0 0 0 -0.100716,0.12039 c -1.812928,2.18284 -2.924433,4.75134 -3.3345,7.40763 -0.01427,0.0924 -0.0277,0.18474 -0.04026,0.27728 a 15.284507,15.284507 0 0 0 -0.01808,0.13632 c -0.007,0.0577 -0.01451,0.11553 -0.0211,0.17335 a 15.284507,15.284507 0 0 0 -6.91e-4,0.004 15.284507,15.284507 0 0 0 -0.02382,0.22147 c -0.0039,0.0418 -0.0083,0.0835 -0.01218,0.1254 a 15.284507,15.284507 0 0 0 -0.02273,0.27208 c -0.0016,0.022 -0.0031,0.044 -0.0047,0.066 a 15.284507,15.284507 0 0 0 -0.01823,0.30625 15.284507,15.284507 0 0 0 -1.86e-4,0.004 c -6.91e-4,0.017 -0.0016,0.034 -0.0024,0.051 a 15.284507,15.284507 0 0 0 -0.01109,0.30948 c -3.5e-4,0.0182 -7.76e-4,0.0363 -0.0016,0.0544 a 15.284507,15.284507 0 0 0 -0.0039,0.3263 c -1.5e-5,0.0102 -1.5e-5,0.0203 0,0.0304 a 15.284507,15.284507 0 0 0 0.0039,0.32792 c 3.49e-4,0.0176 7.76e-4,0.0352 0.0016,0.0527 a 15.284507,15.284507 0 0 0 0.01164,0.32377 c 6.9e-4,0.011 7.76e-4,0.0218 0.0016,0.0327 a 15.284507,15.284507 0 0 0 0.01877,0.3152 c 0.0016,0.019 0.0031,0.0382 0.0039,0.0572 a 15.284507,15.284507 0 0 0 1.79e-4,0.004 15.284507,15.284507 0 0 0 0.02342,0.2796 c 0.0039,0.039 0.0077,0.0778 0.01125,0.11682 3.41e-4,0.004 7.76e-4,0.01 0.0016,0.0148 a 15.284507,15.284507 0 0 0 0.02203,0.20465 c 0.0062,0.0574 0.01334,0.11476 0.02055,0.1721 a 15.284507,15.284507 0 0 0 6.91e-4,0.004 15.284507,15.284507 0 0 0 0.01931,0.14596 c 0.433726,3.19761 1.878451,6.28432 4.336285,8.74215 l 19.164747,-19.16344 a 13.600621,13.600621 0 0 1 0,19.23418 13.600621,13.600621 0 0 1 -15.303623,2.73755 15.284507,15.284507 0 0 0 17.754391,-2.80698 15.284507,15.284507 0 0 0 0,-21.61556 15.284507,15.284507 0 0 0 -0.270296,-0.26351 c -0.0047,-0.004 -0.0098,-0.009 -0.01466,-0.0141 a 15.284507,15.284507 0 0 0 -0.01,-0.009 15.284507,15.284507 0 0 0 -0.251873,-0.23308 c -0.01544,-0.014 -0.03087,-0.0281 -0.04631,-0.042 a 15.284507,15.284507 0 0 0 -0.227361,-0.20033 c -0.03816,-0.033 -0.07664,-0.0655 -0.115027,-0.098 a 15.284507,15.284507 0 0 0 -0.130052,-0.10876 c -2.18037,-1.80788 -4.744637,-2.91663 -7.396532,-3.32627 -6.99e-4,0 -0.0016,0 -0.0024,0 -0.08185,-0.0126 -0.163786,-0.0247 -0.2458,-0.036 a 15.284507,15.284507 0 0 0 -0.1923,-0.0254 c -0.04368,-0.005 -0.08739,-0.011 -0.13113,-0.0161 a 15.284507,15.284507 0 0 0 -0.264936,-0.0284 c -0.02676,-0.004 -0.05352,-0.005 -0.08032,-0.008 a 15.284507,15.284507 0 0 0 -0.299818,-0.025 c -0.01667,-7.7e-4 -0.03343,-0.003 -0.05011,-0.004 a 15.284507,15.284507 0 0 0 -0.336672,-0.02 c -0.007,0 -0.0135,-7.8e-4 -0.02025,-7.8e-4 a 15.284507,15.284507 0 0 0 -0.346507,-0.0125 15.284507,15.284507 0 0 0 -0.0089,0 c -0.0024,-5e-5 -0.0047,6e-5 -0.0077,0 a 15.284507,15.284507 0 0 0 -0.324866,-0.004 15.284507,15.284507 0 0 0 -0.02971,0 c -0.0039,0 -0.007,0 -0.01094,0 z" />
    <path
       id="path924-77-4"
       style="fill:#4b3552;fill-opacity:1;stroke:none;stroke-width:1.73086;stroke-miterlimit:4;stroke-dasharray:none;stroke-opacity:0.321569"
       d="m 145.52093,42.182068 a 15.284507,15.284507 0 0 1 0.004,-0.352946 15.284507,15.284507 0 0 1 0,-0.0045 c 3e-5,-9.66e-4 -2e-5,-0.0021 0,-0.0031 a 15.284507,15.284507 0 0 1 0,-0.0091 15.284507,15.284507 0 0 1 0.0125,-0.346331 c 0,-0.0068 7.7e-4,-0.01346 7.7e-4,-0.02022 a 15.284507,15.284507 0 0 1 0.02,-0.33667 c 7.7e-4,-0.01668 0.003,-0.03341 0.004,-0.05008 a 15.284507,15.284507 0 0 1 0.0248,-0.297854 c 0.003,-0.02773 0.005,-0.05545 0.008,-0.08318 a 15.284507,15.284507 0 0 1 0.0284,-0.26404 c 0.004,-0.04374 0.0106,-0.08742 0.0161,-0.131126 a 15.284507,15.284507 0 0 1 0.0254,-0.192305 c 0.0113,-0.08228 0.0235,-0.164394 0.0362,-0.246513 0.40945,-2.652376 1.51825,-5.217221 3.32644,-7.397967 a 15.284507,15.284507 0 0 1 0.10876,-0.130053 c 0.0326,-0.0384 0.065,-0.07686 0.098,-0.115027 a 15.284507,15.284507 0 0 1 0.20036,-0.227365 c 0.0139,-0.01551 0.0281,-0.03088 0.042,-0.04634 a 15.284507,15.284507 0 0 1 0.23363,-0.25241 15.284507,15.284507 0 0 1 0.009,-0.0093 c 0.004,-0.0049 0.009,-0.0098 0.014,-0.01467 a 15.284507,15.284507 0 0 1 0.26415,-0.270486 15.284507,15.284507 0 0 1 0.27031,-0.263502 c 0.004,-0.0047 0.01,-0.0095 0.0147,-0.01413 0.004,-0.0031 0.007,-0.0063 0.01,-0.0095 a 15.284507,15.284507 0 0 1 0.25188,-0.233091 c 0.0155,-0.01402 0.0309,-0.02811 0.0463,-0.04204 a 15.284507,15.284507 0 0 1 0.2211,-0.194632 c 0.0403,-0.03488 0.0807,-0.06937 0.12128,-0.103755 a 15.284507,15.284507 0 0 1 0.1204,-0.100715 c 2.18283,-1.812927 4.75133,-2.92443 7.40762,-3.334498 0.0924,-0.01426 0.18474,-0.0277 0.27729,-0.04025 a 15.284507,15.284507 0 0 1 0.13631,-0.01808 c 0.0577,-0.0073 0.11553,-0.01446 0.17334,-0.02111 a 15.284507,15.284507 0 0 1 0.004,-6.93e-4 15.284507,15.284507 0 0 1 0.22147,-0.02378 c 0.0418,-0.0042 0.0835,-0.0083 0.12539,-0.01215 a 15.284507,15.284507 0 0 1 0.2721,-0.02271 c 0.022,-0.0017 0.044,-0.0035 0.066,-0.0048 a 15.284507,15.284507 0 0 1 0.30626,-0.01824 15.284507,15.284507 0 0 1 0.004,-1.82e-4 c 0.017,-6.94e-4 0.034,-0.0017 0.051,-0.0024 a 15.284507,15.284507 0 0 1 0.30948,-0.01107 c 0.0182,-3.47e-4 0.0363,-9.66e-4 0.0544,-0.0014 a 15.284507,15.284507 0 0 1 0.32629,-0.0038 c 0.0102,-10e-6 0.0203,-10e-6 0.0304,0 a 15.284507,15.284507 0 0 1 0.32791,0.0038 c 0.0176,3.45e-4 0.0352,9.65e-4 0.0527,0.0014 a 15.284507,15.284507 0 0 1 0.32378,0.01163 c 0.011,6.92e-4 0.0218,9.65e-4 0.0327,0.0017 a 15.284507,15.284507 0 0 1 0.3152,0.0188 c 0.019,0.0014 0.0382,0.0028 0.0572,0.0041 a 15.284507,15.284507 0 0 1 0.004,1.82e-4 15.284507,15.284507 0 0 1 0.27959,0.02343 c 0.039,0.0036 0.0778,0.0074 0.11682,0.01128 0.004,3.47e-4 0.01,0.0011 0.0148,0.0017 a 15.284507,15.284507 0 0 1 0.20464,0.02202 c 0.0574,0.0065 0.11477,0.01337 0.1721,0.02056 a 15.284507,15.284507 0 0 1 0.004,6.92e-4 15.284507,15.284507 0 0 1 0.14597,0.01932 c 3.19761,0.433719 6.28432,1.878447 8.74215,4.336276 l -19.16387,19.16468 a 13.600621,13.600621 0 0 0 19.23417,0 13.600621,13.600621 0 0 0 2.73754,-15.303626 15.284507,15.284507 0 0 1 -2.80697,17.754399 15.284507,15.284507 0 0 1 -21.61556,0 15.284507,15.284507 0 0 1 -0.2635,-0.270301 c -0.004,-0.0049 -0.009,-0.0098 -0.0141,-0.01467 a 15.284507,15.284507 0 0 1 -0.009,-0.01 15.284507,15.284507 0 0 1 -0.23309,-0.251874 c -0.014,-0.01544 -0.0281,-0.03084 -0.042,-0.04633 a 15.284507,15.284507 0 0 1 -0.20036,-0.227369 c -0.033,-0.03816 -0.0655,-0.07662 -0.098,-0.115027 a 15.284507,15.284507 0 0 1 -0.10876,-0.130049 c -1.80787,-2.180375 -2.91663,-4.744638 -3.32627,-7.396537 0,-6.93e-4 0,-0.0014 0,-0.0021 -0.0126,-0.08186 -0.0247,-0.163789 -0.0359,-0.245797 a 15.284507,15.284507 0 0 1 -0.0255,-0.192305 c -0.005,-0.04369 -0.0111,-0.08739 -0.0161,-0.131124 a 15.284507,15.284507 0 0 1 -0.0284,-0.264935 c -0.004,-0.02679 -0.005,-0.05353 -0.008,-0.08032 a 15.284507,15.284507 0 0 1 -0.025,-0.299816 c -7.8e-4,-0.01668 -0.003,-0.03337 -0.004,-0.05009 a 15.284507,15.284507 0 0 1 -0.02,-0.336671 c 0,-0.0068 -7.7e-4,-0.01346 -7.7e-4,-0.02022 a 15.284507,15.284507 0 0 1 -0.0125,-0.346507 15.284507,15.284507 0 0 1 0,-0.0089 c -6e-5,-0.0024 6e-5,-0.005 0,-0.0075 a 15.284507,15.284507 0 0 1 -0.004,-0.324865 15.284507,15.284507 0 0 1 0,-0.0297 c 0,-0.0037 0,-0.0073 0,-0.01091 z" />
  </g>
</svg>
