<?xml version="1.0" encoding="UTF-8" standalone="no"?>
<!-- Created with Inkscape (http://www.inkscape.org/) -->

<svg
   width="30mm"
   height="50mm"
   viewBox="0 0 30 50"
   version="1.1"
   id="svg5"
   inkscape:version="1.1 (c68e22c387, 2021-05-23)"
   sodipodi:docname="seg13.svg"
   xmlns:inkscape="http://www.inkscape.org/namespaces/inkscape"
   xmlns:sodipodi="http://sodipodi.sourceforge.net/DTD/sodipodi-0.dtd"
   xmlns="http://www.w3.org/2000/svg"
   xmlns:svg="http://www.w3.org/2000/svg">
  <style>
    :root {
      --bgcolor: #6d7670;
      --quenched: #606a68;
      --lit: #9feeaf;
    }
    .quenched {
      fill: var(--quenched);
    }
    .lit {
      fill: var(--lit);
    }
  </style>
  <sodipodi:namedview
     id="namedview7"
     pagecolor="#ffffff"
     bordercolor="#666666"
     borderopacity="1.0"
     inkscape:pageshadow="2"
     inkscape:pageopacity="0.0"
     inkscape:pagecheckerboard="0"
     inkscape:document-units="mm"
     showgrid="false"
     showguides="true"
     inkscape:guide-bbox="true"
     inkscape:zoom="2.0812827"
     inkscape:cx="0.96094586"
     inkscape:cy="96.815296"
     inkscape:window-width="1920"
     inkscape:window-height="1010"
     inkscape:window-x="-7"
     inkscape:window-y="-7"
     inkscape:window-maximized="1"
     inkscape:current-layer="layer1" />
  <defs
     id="defs2" />
  <g
     inkscape:label="Layer"
     inkscape:groupmode="layer"
     id="layer1"
     sodipodi:insensitive="true">
    <path
       id="disp_seg1"
       style="color:#000000;stroke-width:0;-inkscape-stroke:none"
       d="M 74.103516,43.435547 86.851562,22.189453 C 84.110418,18.363264 81.273623,14.879193 78.359375,11.826172 72.480146,5.6669797 66.7091,0 56.693359,0 46.677623,0 40.906572,5.6669797 35.027344,11.826172 32.113658,14.878605 29.27581,18.362181 26.535156,22.1875 l 12.748047,21.248047 c 3.613682,-6.267433 6.56563,-10.643144 12.146485,-13.199219 3.190174,-1.461123 7.337169,-1.461123 10.527343,0 5.580869,2.556081 8.532791,6.931761 12.146485,13.199219 z"
       transform="scale(0.26458333)"
       inkscape:label="S1" />
    <path
       id="disp_seg2"
       style="color:#000000;stroke-width:0;-inkscape-stroke:none"
       d="M 85.548828,68.429688 99.953125,44.423828 C 98.341837,41.138438 96.64914,37.929909 94.894531,34.841797 92.329945,30.328127 89.640427,26.082251 86.851562,22.189453 L 74.103516,43.435547 c 0.482319,0.836517 0.972508,1.701147 1.486328,2.605469 3.914183,6.888961 7.350491,14.689065 9.958984,22.388672 z"
       transform="scale(0.26458333)"
       inkscape:label="S2" />
    <path
       id="disp_seg3"
       style="color:#000000;stroke-width:0;-inkscape-stroke:none"
       d="m 85.548828,120.54688 14.404297,24.00585 c 7.728525,-15.75834 13.433595,-33.46033 13.433595,-50.064449 0,-16.604112 -5.70507,-34.30611 -13.433595,-50.064453 l -14.404297,24.00586 c 3.207389,9.467394 5.160156,18.782277 5.160156,26.058593 0,7.276319 -1.952767,16.591199 -5.160156,26.058599 z"
       transform="scale(0.26458333)"
       inkscape:label="S3" />
    <path
       id="disp_seg4"
       style="color:#000000;stroke-width:0;-inkscape-stroke:none"
       d="m 74.103516,145.54102 12.748046,21.24609 c 2.788865,-3.8928 5.478383,-8.13867 8.042969,-12.65234 1.754609,-3.08812 3.447306,-6.29665 5.058594,-9.58204 L 85.548828,120.54688 c -2.608493,7.6996 -6.044801,15.49971 -9.958984,22.38867 -0.51382,0.90432 -1.004009,1.76895 -1.486328,2.60547 z"
       transform="scale(0.26458333)"
       inkscape:label="S4" />
    <path
       id="disp_seg5"
       style="color:#000000;stroke-width:0;-inkscape-stroke:none"
       d="m 39.283203,145.54102 -12.748047,21.24804 c 2.740654,3.82532 5.578502,7.3089 8.492188,10.36133 5.879228,6.15919 11.650279,11.82617 21.666015,11.82617 10.015741,0 15.786787,-5.66698 21.666016,-11.82617 2.914248,-3.05302 5.751043,-6.53709 8.492187,-10.36328 L 74.103516,145.54102 c -3.613694,6.26745 -6.565616,10.64313 -12.146485,13.19921 -3.190174,1.46113 -7.337169,1.46113 -10.527343,0 -5.580855,-2.55607 -8.532803,-6.93178 -12.146485,-13.19921 z"
       transform="scale(0.26458333)"
       inkscape:label="S5" />
    <path
       id="disp_seg6"
       style="color:#000000;stroke-width:0;-inkscape-stroke:none"
       d="m 27.835938,120.54883 -14.404297,24.00586 c 1.611086,3.2849 3.306184,6.4924 5.060547,9.58008 2.565071,4.51452 5.253537,8.76089 8.042968,12.65429 l 12.748047,-21.24804 c -0.482328,-0.83654 -0.974452,-1.70113 -1.488281,-2.60547 -3.913884,-6.88844 -7.350563,-14.68769 -9.958984,-22.38672 z"
       transform="scale(0.26458333)"
       inkscape:label="S6" />
    <path
       id="disp_seg7"
       style="color:#000000;stroke-width:0;-inkscape-stroke:none"
       d="M 13.431641,44.421875 C 5.7027667,60.180566 0,77.883682 0,94.488281 0,111.09288 5.7027667,128.796 13.431641,144.55469 l 14.404297,-24.00586 c -3.207746,-9.468 -5.158204,-18.78378 -5.158204,-26.060549 0,-7.276769 1.950458,-16.592544 5.158204,-26.060547 z"
       transform="scale(0.26458333)"
       inkscape:label="S7" />
    <path
       id="disp_seg8"
       style="color:#000000;stroke-width:0;-inkscape-stroke:none"
       d="m 13.431641,44.421875 14.404297,24.005859 c 2.608421,-7.699033 6.0451,-15.498283 9.958984,-22.386718 0.513829,-0.904339 1.005953,-1.768938 1.488281,-2.605469 L 26.535156,22.1875 c -2.789431,3.8934 -5.477897,8.139771 -8.042968,12.654297 -1.754363,3.087678 -3.449461,6.295174 -5.060547,9.580078 z"
       transform="scale(0.26458333)"
       inkscape:label="S8" />
    <path
       id="disp_segb"
       style="color:#000000;display:inline;stroke-width:0;-inkscape-stroke:none"
       inkscape:label="SB"
       d="M 56.693359,116.52344 43.472656,94.488281 27.835938,120.54883 c 0.06385,0.18845 0.120702,0.37589 0.185546,0.56445 0.369181,1.07355 0.753996,2.14888 1.154297,3.22266 0.400301,1.07378 0.816653,2.14632 1.246094,3.21484 0.429441,1.06853 0.873477,2.13167 1.330078,3.18945 0.456601,1.05779 0.926423,2.10884 1.408203,3.15039 0.481781,1.04157 0.975489,2.0739 1.480469,3.09376 0.50498,1.01984 1.020675,2.02882 1.546875,3.02148 0.5262,0.99265 1.061982,1.96971 1.607422,2.92969 0.513829,0.90434 1.005953,1.76893 1.488281,2.60547 z"
       transform="scale(0.26458333)" />
    <path
       id="disp_sega"
       style="color:#000000;display:inline;stroke-width:0;-inkscape-stroke:none"
       inkscape:label="SA"
       d="m 69.914062,94.488281 -13.220703,22.035159 17.410157,29.01758 c 0.482319,-0.83652 0.972508,-1.70115 1.486328,-2.60547 0.54544,-0.95998 1.083174,-1.93704 1.609375,-2.92969 0.5262,-0.99266 1.041894,-2.00164 1.546875,-3.02148 0.50498,-1.01986 0.998689,-2.05219 1.480468,-3.09376 0.481781,-1.04155 0.951603,-2.0926 1.408204,-3.15039 0.4566,-1.05778 0.900637,-2.12092 1.330078,-3.18945 0.429441,-1.06852 0.84384,-2.14106 1.24414,-3.21484 0.400301,-1.07378 0.785116,-2.14911 1.154297,-3.22266 0.06505,-0.18915 0.121502,-0.37737 0.185547,-0.5664 z"
       transform="scale(0.26458333)" />
    <path
       id="disp_segd"
       style="color:#000000;display:inline;stroke-width:0;-inkscape-stroke:none"
       inkscape:label="SD"
       d="M 56.693359,72.453125 43.472656,94.488281 56.693359,116.52344 69.914062,94.488281 Z"
       transform="scale(0.26458333)" />
    <path
       id="disp_seg9"
       style="color:#000000;display:inline;stroke-width:0;-inkscape-stroke:none"
       inkscape:label="S9"
       d="M 56.693359,72.453125 69.914062,94.488281 85.548828,68.429688 c -0.06405,-0.189044 -0.1205,-0.377256 -0.185547,-0.566407 -0.369181,-1.073547 -0.753996,-2.148878 -1.154297,-3.222656 -0.4003,-1.073778 -0.814699,-2.146319 -1.24414,-3.214844 -0.429441,-1.068524 -0.873478,-2.133621 -1.330078,-3.191406 -0.456601,-1.057785 -0.926423,-2.10883 -1.408204,-3.150391 -0.481779,-1.04156 -0.975488,-2.071947 -1.480468,-3.091796 -0.504981,-1.019851 -1.020675,-2.02883 -1.546875,-3.021485 -0.526201,-0.992655 -1.063935,-1.969713 -1.609375,-2.929687 -0.51382,-0.904322 -1.004009,-1.768952 -1.486328,-2.605469 z"
       transform="scale(0.26458333)" />
    <path
       id="disp_segc"
       style="color:#000000;display:inline;stroke-width:0;-inkscape-stroke:none"
       inkscape:label="SC"
       d="m 39.283203,43.435547 c -0.482328,0.836531 -0.974452,1.70113 -1.488281,2.605469 -0.54544,0.959974 -1.081222,1.937032 -1.607422,2.929687 -0.5262,0.992655 -1.041895,2.001634 -1.546875,3.021485 -0.50498,1.019849 -0.998688,2.050236 -1.480469,3.091796 -0.48178,1.041561 -0.951602,2.092606 -1.408203,3.150391 -0.456601,1.057785 -0.900637,2.122882 -1.330078,3.191406 -0.429441,1.068525 -0.845793,2.141066 -1.246094,3.214844 -0.400301,1.073778 -0.785116,2.149109 -1.154297,3.222656 -0.06484,0.188562 -0.121699,0.375998 -0.185546,0.564453 L 43.472656,94.488281 56.693359,72.453125 Z"
       transform="scale(0.26458333)" />
  </g>
</svg>
